<mxfile host="app.diagrams.net" agent="Mozilla/5.0 (Windows NT 10.0; Win64; x64) AppleWebKit/537.36 (KHTML, like Gecko) Chrome/136.0.0.0 Safari/537.36" version="27.0.3">
  <diagram name="Page-1" id="naR0QIo5F7ohYDQjwnZy">
    <mxGraphModel dx="1425" dy="926" grid="1" gridSize="5" guides="1" tooltips="1" connect="1" arrows="1" fold="1" page="1" pageScale="1" pageWidth="827" pageHeight="583" math="0" shadow="0">
      <root>
        <mxCell id="0" />
        <mxCell id="1" parent="0" />
        <mxCell id="a7J7K2taWwsyM3QRtXLd-1" value="" style="ellipse;whiteSpace=wrap;html=1;aspect=fixed;fillColor=light-dark(#ed0c0c, #ededed);" vertex="1" parent="1">
          <mxGeometry x="199" y="220" width="20" height="20" as="geometry" />
        </mxCell>
        <mxCell id="a7J7K2taWwsyM3QRtXLd-3" value="" style="ellipse;whiteSpace=wrap;html=1;aspect=fixed;fillColor=light-dark(#ed0c0c, #ededed);" vertex="1" parent="1">
          <mxGeometry x="399" y="220" width="20" height="20" as="geometry" />
        </mxCell>
        <mxCell id="a7J7K2taWwsyM3QRtXLd-5" value="" style="ellipse;whiteSpace=wrap;html=1;aspect=fixed;fillColor=light-dark(#ed0c0c, #ededed);" vertex="1" parent="1">
          <mxGeometry x="599" y="220" width="20" height="20" as="geometry" />
        </mxCell>
        <mxCell id="a7J7K2taWwsyM3QRtXLd-6" value="" style="ellipse;whiteSpace=wrap;html=1;aspect=fixed;fillColor=light-dark(#ed0c0c, #ededed);" vertex="1" parent="1">
          <mxGeometry x="199" y="420" width="20" height="20" as="geometry" />
        </mxCell>
        <mxCell id="a7J7K2taWwsyM3QRtXLd-7" value="" style="ellipse;whiteSpace=wrap;html=1;aspect=fixed;fillColor=light-dark(#ed0c0c, #ededed);" vertex="1" parent="1">
          <mxGeometry x="599" y="420" width="20" height="20" as="geometry" />
        </mxCell>
        <mxCell id="a7J7K2taWwsyM3QRtXLd-8" value="" style="ellipse;whiteSpace=wrap;html=1;aspect=fixed;fillColor=light-dark(#ed0c0c, #ededed);" vertex="1" parent="1">
          <mxGeometry x="402" y="420" width="20" height="20" as="geometry" />
        </mxCell>
        <mxCell id="a7J7K2taWwsyM3QRtXLd-9" value="" style="ellipse;whiteSpace=wrap;html=1;aspect=fixed;fillColor=light-dark(#776FED,#EDEDED);" vertex="1" parent="1">
          <mxGeometry x="304" y="225" width="10" height="10" as="geometry" />
        </mxCell>
        <mxCell id="a7J7K2taWwsyM3QRtXLd-10" value="" style="ellipse;whiteSpace=wrap;html=1;aspect=fixed;fillColor=light-dark(#776FED,#EDEDED);" vertex="1" parent="1">
          <mxGeometry x="304" y="425" width="10" height="10" as="geometry" />
        </mxCell>
        <mxCell id="a7J7K2taWwsyM3QRtXLd-11" value="" style="ellipse;whiteSpace=wrap;html=1;aspect=fixed;fillColor=light-dark(#776FED,#EDEDED);" vertex="1" parent="1">
          <mxGeometry x="204" y="325" width="10" height="10" as="geometry" />
        </mxCell>
        <mxCell id="a7J7K2taWwsyM3QRtXLd-12" value="" style="ellipse;whiteSpace=wrap;html=1;aspect=fixed;fillColor=light-dark(#776FED,#EDEDED);" vertex="1" parent="1">
          <mxGeometry x="304" y="325" width="10" height="10" as="geometry" />
        </mxCell>
        <mxCell id="a7J7K2taWwsyM3QRtXLd-13" value="" style="ellipse;whiteSpace=wrap;html=1;aspect=fixed;fillColor=light-dark(#776FED,#EDEDED);" vertex="1" parent="1">
          <mxGeometry x="404" y="325" width="10" height="10" as="geometry" />
        </mxCell>
        <mxCell id="a7J7K2taWwsyM3QRtXLd-14" value="" style="ellipse;whiteSpace=wrap;html=1;aspect=fixed;fillColor=light-dark(#776FED,#EDEDED);" vertex="1" parent="1">
          <mxGeometry x="104" y="325" width="10" height="10" as="geometry" />
        </mxCell>
        <mxCell id="a7J7K2taWwsyM3QRtXLd-15" value="" style="ellipse;whiteSpace=wrap;html=1;aspect=fixed;fillColor=light-dark(#776FED,#EDEDED);" vertex="1" parent="1">
          <mxGeometry x="104" y="225" width="10" height="10" as="geometry" />
        </mxCell>
        <mxCell id="a7J7K2taWwsyM3QRtXLd-17" value="" style="ellipse;whiteSpace=wrap;html=1;aspect=fixed;fillColor=light-dark(#776FED,#EDEDED);" vertex="1" parent="1">
          <mxGeometry x="104" y="425" width="10" height="10" as="geometry" />
        </mxCell>
        <mxCell id="a7J7K2taWwsyM3QRtXLd-18" value="" style="ellipse;whiteSpace=wrap;html=1;aspect=fixed;fillColor=light-dark(#776FED,#EDEDED);" vertex="1" parent="1">
          <mxGeometry x="104" y="525" width="10" height="10" as="geometry" />
        </mxCell>
        <mxCell id="a7J7K2taWwsyM3QRtXLd-19" value="" style="ellipse;whiteSpace=wrap;html=1;aspect=fixed;fillColor=light-dark(#776FED,#EDEDED);" vertex="1" parent="1">
          <mxGeometry x="204" y="525" width="10" height="10" as="geometry" />
        </mxCell>
        <mxCell id="a7J7K2taWwsyM3QRtXLd-20" value="" style="ellipse;whiteSpace=wrap;html=1;aspect=fixed;fillColor=light-dark(#776FED,#EDEDED);" vertex="1" parent="1">
          <mxGeometry x="304" y="525" width="10" height="10" as="geometry" />
        </mxCell>
        <mxCell id="a7J7K2taWwsyM3QRtXLd-21" value="" style="ellipse;whiteSpace=wrap;html=1;aspect=fixed;fillColor=light-dark(#776FED,#EDEDED);" vertex="1" parent="1">
          <mxGeometry x="705" y="105" width="9" height="9" as="geometry" />
        </mxCell>
        <mxCell id="a7J7K2taWwsyM3QRtXLd-22" value="" style="ellipse;whiteSpace=wrap;html=1;aspect=fixed;fillColor=light-dark(#776FED,#EDEDED);" vertex="1" parent="1">
          <mxGeometry x="504" y="525" width="10" height="10" as="geometry" />
        </mxCell>
        <mxCell id="a7J7K2taWwsyM3QRtXLd-23" value="" style="ellipse;whiteSpace=wrap;html=1;aspect=fixed;fillColor=light-dark(#776FED,#EDEDED);" vertex="1" parent="1">
          <mxGeometry x="504" y="425" width="10" height="10" as="geometry" />
        </mxCell>
        <mxCell id="a7J7K2taWwsyM3QRtXLd-24" value="" style="ellipse;whiteSpace=wrap;html=1;aspect=fixed;fillColor=light-dark(#776FED,#EDEDED);" vertex="1" parent="1">
          <mxGeometry x="504" y="325" width="10" height="10" as="geometry" />
        </mxCell>
        <mxCell id="a7J7K2taWwsyM3QRtXLd-25" value="" style="ellipse;whiteSpace=wrap;html=1;aspect=fixed;fillColor=light-dark(#776FED,#EDEDED);" vertex="1" parent="1">
          <mxGeometry x="504" y="225" width="10" height="10" as="geometry" />
        </mxCell>
        <mxCell id="a7J7K2taWwsyM3QRtXLd-26" value="" style="ellipse;whiteSpace=wrap;html=1;aspect=fixed;fillColor=light-dark(#776FED,#EDEDED);" vertex="1" parent="1">
          <mxGeometry x="604" y="525" width="10" height="10" as="geometry" />
        </mxCell>
        <mxCell id="a7J7K2taWwsyM3QRtXLd-27" value="" style="ellipse;whiteSpace=wrap;html=1;aspect=fixed;fillColor=light-dark(#776FED,#EDEDED);" vertex="1" parent="1">
          <mxGeometry x="604" y="325" width="10" height="10" as="geometry" />
        </mxCell>
        <mxCell id="a7J7K2taWwsyM3QRtXLd-28" value="" style="ellipse;whiteSpace=wrap;html=1;aspect=fixed;fillColor=light-dark(#776FED,#EDEDED);" vertex="1" parent="1">
          <mxGeometry x="704" y="530" width="10" height="10" as="geometry" />
        </mxCell>
        <mxCell id="a7J7K2taWwsyM3QRtXLd-29" value="" style="ellipse;whiteSpace=wrap;html=1;aspect=fixed;fillColor=light-dark(#776FED,#EDEDED);" vertex="1" parent="1">
          <mxGeometry x="704" y="425" width="10" height="10" as="geometry" />
        </mxCell>
        <mxCell id="a7J7K2taWwsyM3QRtXLd-30" value="" style="ellipse;whiteSpace=wrap;html=1;aspect=fixed;fillColor=light-dark(#776FED,#EDEDED);" vertex="1" parent="1">
          <mxGeometry x="704" y="325" width="10" height="10" as="geometry" />
        </mxCell>
        <mxCell id="a7J7K2taWwsyM3QRtXLd-33" value="" style="ellipse;whiteSpace=wrap;html=1;aspect=fixed;fillColor=light-dark(#776FED,#EDEDED);" vertex="1" parent="1">
          <mxGeometry x="704" y="225" width="10" height="10" as="geometry" />
        </mxCell>
        <mxCell id="a7J7K2taWwsyM3QRtXLd-34" value="" style="ellipse;whiteSpace=wrap;html=1;aspect=fixed;fillColor=light-dark(#776FED,#EDEDED);" vertex="1" parent="1">
          <mxGeometry x="605" y="104" width="10" height="10" as="geometry" />
        </mxCell>
        <mxCell id="a7J7K2taWwsyM3QRtXLd-35" value="" style="ellipse;whiteSpace=wrap;html=1;aspect=fixed;fillColor=light-dark(#776FED,#EDEDED);" vertex="1" parent="1">
          <mxGeometry x="414" y="535" width="10" height="10" as="geometry" />
        </mxCell>
        <mxCell id="a7J7K2taWwsyM3QRtXLd-36" value="" style="ellipse;whiteSpace=wrap;html=1;aspect=fixed;fillColor=light-dark(#776FED,#EDEDED);" vertex="1" parent="1">
          <mxGeometry x="505" y="105" width="10" height="10" as="geometry" />
        </mxCell>
        <mxCell id="a7J7K2taWwsyM3QRtXLd-37" value="" style="ellipse;whiteSpace=wrap;html=1;aspect=fixed;fillColor=light-dark(#776FED,#EDEDED);" vertex="1" parent="1">
          <mxGeometry x="405" y="105" width="10" height="10" as="geometry" />
        </mxCell>
        <mxCell id="a7J7K2taWwsyM3QRtXLd-38" value="" style="ellipse;whiteSpace=wrap;html=1;aspect=fixed;fillColor=light-dark(#776FED,#EDEDED);" vertex="1" parent="1">
          <mxGeometry x="305" y="105" width="10" height="10" as="geometry" />
        </mxCell>
        <mxCell id="a7J7K2taWwsyM3QRtXLd-39" value="" style="ellipse;whiteSpace=wrap;html=1;aspect=fixed;fillColor=light-dark(#776FED,#EDEDED);" vertex="1" parent="1">
          <mxGeometry x="205" y="105" width="10" height="10" as="geometry" />
        </mxCell>
        <mxCell id="a7J7K2taWwsyM3QRtXLd-40" value="" style="ellipse;whiteSpace=wrap;html=1;aspect=fixed;fillColor=light-dark(#776FED,#EDEDED);" vertex="1" parent="1">
          <mxGeometry x="105" y="105" width="10" height="10" as="geometry" />
        </mxCell>
      </root>
    </mxGraphModel>
  </diagram>
</mxfile>
